<svg width="375" height="72" viewBox="0 0 375 72" fill="none" xmlns="http://www.w3.org/2000/svg">
<g clip-path="url(#clip0_0_654)">
<path d="M56.788 30.12C59.0546 30.12 61.0346 30.5533 62.728 31.42C64.4213 32.2733 65.7346 33.4733 66.668 35.02C67.6146 36.5667 68.088 38.3667 68.088 40.42C68.088 42.3133 67.5946 44.0267 66.608 45.56C65.6213 47.0933 64.2546 48.3133 62.508 49.22C60.7746 50.1133 58.7613 50.56 56.468 50.56C54.2013 50.56 52.2213 50.1267 50.528 49.26C48.8346 48.38 47.5146 47.1667 46.568 45.62C45.6346 44.0733 45.168 42.2867 45.168 40.26C45.168 38.3267 45.6613 36.6 46.648 35.08C47.6346 33.5467 48.9946 32.34 50.728 31.46C52.4746 30.5667 54.4946 30.12 56.788 30.12ZM58.248 47.66C58.7546 47.54 59.1413 47.1867 59.408 46.6C59.6746 46.0133 59.7946 45.16 59.768 44.04C59.7413 42.92 59.5413 41.5 59.168 39.78C58.8213 38.1267 58.428 36.78 57.988 35.74C57.5613 34.7 57.0946 33.9533 56.588 33.5C56.0813 33.0467 55.5546 32.8867 55.008 33.02C54.5013 33.14 54.1146 33.4933 53.848 34.08C53.5813 34.6667 53.4613 35.52 53.488 36.64C53.528 37.7467 53.728 39.1667 54.088 40.9C54.4346 42.54 54.828 43.8867 55.268 44.94C55.708 45.98 56.1746 46.7267 56.668 47.18C57.1746 47.62 57.7013 47.78 58.248 47.66ZM84.9098 45.9V45.64H84.6098V36.4C84.6098 35.9733 84.5498 35.6733 84.4298 35.5C84.3232 35.3133 84.1565 35.1867 83.9298 35.12L83.4898 34.98C83.2098 34.8867 83.0032 34.7533 82.8698 34.58C82.7498 34.4067 82.6898 34.1867 82.6898 33.92C82.6898 33.6 82.7765 33.3467 82.9498 33.16C83.1232 32.9733 83.4498 32.7867 83.9298 32.6L88.3698 30.88C89.0498 30.6133 89.5965 30.42 90.0098 30.3C90.4365 30.18 90.8498 30.12 91.2498 30.12C91.8498 30.12 92.3032 30.2933 92.6098 30.64C92.9298 30.9733 93.0898 31.4 93.0898 31.92V45.8C93.0898 46.3333 93.1298 46.7133 93.2098 46.94C93.2898 47.1533 93.4298 47.3067 93.6298 47.4L94.0698 47.6C94.3765 47.7333 94.5965 47.9 94.7298 48.1C94.8632 48.3 94.9298 48.5333 94.9298 48.8C94.9298 49.1733 94.8098 49.4667 94.5698 49.68C94.3298 49.8933 93.9432 50 93.4098 50H88.5098C87.5632 50 86.7232 49.5933 85.9898 48.78C85.2698 47.9667 84.9098 47.0067 84.9098 45.9ZM71.6898 44.16V36.4C71.6898 35.9733 71.6298 35.6733 71.5098 35.5C71.4032 35.3133 71.2365 35.1867 71.0098 35.12L70.5698 34.98C70.2898 34.8867 70.0832 34.7533 69.9498 34.58C69.8298 34.4067 69.7698 34.1867 69.7698 33.92C69.7698 33.6 69.8565 33.3467 70.0298 33.16C70.2032 32.9733 70.5298 32.7867 71.0098 32.6L75.4498 30.88C76.1698 30.6 76.7365 30.4067 77.1498 30.3C77.5632 30.18 77.9298 30.12 78.2498 30.12C78.8898 30.12 79.3698 30.2933 79.6898 30.64C80.0098 30.9733 80.1698 31.4 80.1698 31.92V42.96C80.1698 43.8133 80.3632 44.4533 80.7498 44.88C81.1498 45.3067 81.7032 45.52 82.4098 45.52C82.8498 45.52 83.3098 45.4333 83.7898 45.26C84.2698 45.0867 84.6965 44.8333 85.0698 44.5L85.7698 43.88L86.9698 45.16L86.3698 45.72C84.4898 47.52 82.8565 48.78 81.4698 49.5C80.0832 50.2067 78.8098 50.56 77.6498 50.56C75.8765 50.56 74.4365 49.9667 73.3298 48.78C72.2365 47.5933 71.6898 46.0533 71.6898 44.16ZM106.782 39.08C106.782 37.04 107.049 35.36 107.582 34.04C108.115 32.7067 108.822 31.72 109.702 31.08C110.595 30.44 111.569 30.12 112.622 30.12C114.035 30.12 115.115 30.5467 115.862 31.4C116.622 32.24 117.002 33.5133 117.002 35.22C117.002 36.9667 116.649 38.2533 115.942 39.08C115.249 39.9067 114.342 40.32 113.222 40.32C112.089 40.32 111.235 40.0333 110.662 39.46C110.102 38.8733 109.822 38.0667 109.822 37.04V36.2C109.809 35.8533 109.729 35.5933 109.582 35.42C109.449 35.2333 109.235 35.14 108.942 35.14C108.675 35.14 108.435 35.26 108.222 35.5C108.022 35.7267 107.862 36.1067 107.742 36.64C107.622 37.16 107.562 37.8667 107.562 38.76L106.782 39.08ZM107.002 31.92L107.562 36.1V45.8C107.562 46.2667 107.629 46.6 107.762 46.8C107.895 46.9867 108.202 47.1267 108.682 47.22L110.202 47.52C110.602 47.6 110.895 47.74 111.082 47.94C111.269 48.14 111.362 48.42 111.362 48.78C111.362 49.1667 111.229 49.4667 110.962 49.68C110.709 49.8933 110.329 50 109.822 50H98.762C98.2287 50 97.842 49.8933 97.602 49.68C97.362 49.4667 97.242 49.1733 97.242 48.8C97.242 48.5333 97.3087 48.3 97.442 48.1C97.5754 47.9 97.7954 47.7333 98.102 47.6L98.542 47.4C98.742 47.3067 98.882 47.1533 98.962 46.94C99.042 46.7133 99.082 46.3333 99.082 45.8V36.48C99.082 36.0533 99.022 35.7533 98.902 35.58C98.7954 35.3933 98.6287 35.2667 98.402 35.2L97.962 35.06C97.682 34.9667 97.4754 34.8333 97.342 34.66C97.222 34.4867 97.162 34.2667 97.162 34C97.162 33.68 97.2487 33.4267 97.422 33.24C97.6087 33.04 97.9354 32.8533 98.402 32.68L102.702 31C103.649 30.6267 104.329 30.3867 104.742 30.28C105.155 30.1733 105.475 30.12 105.702 30.12C106.075 30.12 106.362 30.26 106.562 30.54C106.762 30.8067 106.909 31.2667 107.002 31.92ZM146.751 36.3C146.751 37.3133 146.365 38.1733 145.591 38.88C144.831 39.5867 143.811 39.94 142.531 39.94C141.291 39.94 140.358 39.6133 139.731 38.96C139.118 38.2933 138.811 37.4467 138.811 36.42V35.78C138.811 34.9133 138.631 34.2333 138.271 33.74C137.911 33.2333 137.438 32.98 136.851 32.98C136.385 32.98 135.945 33.1533 135.531 33.5C135.131 33.8467 134.805 34.38 134.551 35.1C134.298 35.8067 134.171 36.7067 134.171 37.8C134.171 39.3467 134.431 40.64 134.951 41.68C135.485 42.72 136.211 43.5067 137.131 44.04C138.051 44.56 139.098 44.82 140.271 44.82C141.125 44.82 141.891 44.72 142.571 44.52C143.265 44.3067 143.951 43.9 144.631 43.3C145.018 42.9533 145.311 42.72 145.511 42.6C145.711 42.48 145.905 42.42 146.091 42.42C146.358 42.42 146.551 42.5533 146.671 42.82C146.805 43.0867 146.871 43.4133 146.871 43.8C146.871 44.9867 146.471 46.1 145.671 47.14C144.885 48.1667 143.785 48.9933 142.371 49.62C140.958 50.2467 139.318 50.56 137.451 50.56C135.411 50.56 133.578 50.16 131.951 49.36C130.338 48.5467 129.058 47.42 128.111 45.98C127.165 44.5267 126.691 42.8333 126.691 40.9C126.691 38.8333 127.145 36.9867 128.051 35.36C128.971 33.7333 130.265 32.4533 131.931 31.52C133.611 30.5867 135.591 30.12 137.871 30.12C139.698 30.12 141.271 30.4 142.591 30.96C143.925 31.5067 144.951 32.2467 145.671 33.18C146.391 34.1133 146.751 35.1533 146.751 36.3ZM160.616 30.12C162.883 30.12 164.863 30.5533 166.556 31.42C168.249 32.2733 169.563 33.4733 170.496 35.02C171.443 36.5667 171.916 38.3667 171.916 40.42C171.916 42.3133 171.423 44.0267 170.436 45.56C169.449 47.0933 168.083 48.3133 166.336 49.22C164.603 50.1133 162.589 50.56 160.296 50.56C158.029 50.56 156.049 50.1267 154.356 49.26C152.663 48.38 151.343 47.1667 150.396 45.62C149.463 44.0733 148.996 42.2867 148.996 40.26C148.996 38.3267 149.489 36.6 150.476 35.08C151.463 33.5467 152.823 32.34 154.556 31.46C156.303 30.5667 158.323 30.12 160.616 30.12ZM162.076 47.66C162.583 47.54 162.969 47.1867 163.236 46.6C163.503 46.0133 163.623 45.16 163.596 44.04C163.569 42.92 163.369 41.5 162.996 39.78C162.649 38.1267 162.256 36.78 161.816 35.74C161.389 34.7 160.923 33.9533 160.416 33.5C159.909 33.0467 159.383 32.8867 158.836 33.02C158.329 33.14 157.943 33.4933 157.676 34.08C157.409 34.6667 157.289 35.52 157.316 36.64C157.356 37.7467 157.556 39.1667 157.916 40.9C158.263 42.54 158.656 43.8867 159.096 44.94C159.536 45.98 160.003 46.7267 160.496 47.18C161.003 47.62 161.529 47.78 162.076 47.66ZM184.398 21.6V45.8C184.398 46.3333 184.438 46.7133 184.518 46.94C184.598 47.1533 184.738 47.3067 184.938 47.4L185.378 47.6C185.685 47.7333 185.905 47.9 186.038 48.1C186.171 48.3 186.238 48.5333 186.238 48.8C186.238 49.1733 186.118 49.4667 185.878 49.68C185.638 49.8933 185.251 50 184.718 50H175.598C175.065 50 174.678 49.8933 174.438 49.68C174.198 49.4667 174.078 49.1733 174.078 48.8C174.078 48.5333 174.145 48.3 174.278 48.1C174.411 47.9 174.631 47.7333 174.938 47.6L175.378 47.4C175.578 47.3067 175.718 47.1533 175.798 46.94C175.878 46.7133 175.918 46.3333 175.918 45.8V26.08C175.918 25.6533 175.858 25.3533 175.738 25.18C175.631 24.9933 175.465 24.8667 175.238 24.8L174.798 24.66C174.518 24.5667 174.311 24.4333 174.178 24.26C174.058 24.0867 173.998 23.8667 173.998 23.6C173.998 23.28 174.085 23.0267 174.258 22.84C174.431 22.6533 174.758 22.4667 175.238 22.28L179.678 20.56C180.398 20.28 180.965 20.0867 181.378 19.98C181.791 19.86 182.158 19.8 182.478 19.8C183.118 19.8 183.598 19.9733 183.918 20.32C184.238 20.6533 184.398 21.08 184.398 21.6ZM198.46 21.6V45.8C198.46 46.3333 198.5 46.7133 198.58 46.94C198.66 47.1533 198.8 47.3067 199 47.4L199.44 47.6C199.747 47.7333 199.967 47.9 200.1 48.1C200.234 48.3 200.3 48.5333 200.3 48.8C200.3 49.1733 200.18 49.4667 199.94 49.68C199.7 49.8933 199.314 50 198.78 50H189.66C189.127 50 188.74 49.8933 188.5 49.68C188.26 49.4667 188.14 49.1733 188.14 48.8C188.14 48.5333 188.207 48.3 188.34 48.1C188.474 47.9 188.694 47.7333 189 47.6L189.44 47.4C189.64 47.3067 189.78 47.1533 189.86 46.94C189.94 46.7133 189.98 46.3333 189.98 45.8V26.08C189.98 25.6533 189.92 25.3533 189.8 25.18C189.694 24.9933 189.527 24.8667 189.3 24.8L188.86 24.66C188.58 24.5667 188.374 24.4333 188.24 24.26C188.12 24.0867 188.06 23.8667 188.06 23.6C188.06 23.28 188.147 23.0267 188.32 22.84C188.494 22.6533 188.82 22.4667 189.3 22.28L193.74 20.56C194.46 20.28 195.027 20.0867 195.44 19.98C195.854 19.86 196.22 19.8 196.54 19.8C197.18 19.8 197.66 19.9733 197.98 20.32C198.3 20.6533 198.46 21.08 198.46 21.6ZM222.463 37.84C222.463 38.7733 222.21 39.5 221.703 40.02C221.196 40.5267 220.47 40.78 219.523 40.78H207.663V38.7H213.003C213.736 38.7 214.103 38.3533 214.103 37.66C214.103 35.98 213.91 34.78 213.523 34.06C213.136 33.34 212.623 32.98 211.983 32.98C211.516 32.98 211.096 33.1533 210.723 33.5C210.35 33.8467 210.05 34.38 209.823 35.1C209.61 35.8067 209.503 36.7067 209.503 37.8C209.503 40.2267 210.05 42.0067 211.143 43.14C212.236 44.26 213.73 44.82 215.623 44.82C216.503 44.82 217.303 44.72 218.023 44.52C218.743 44.32 219.45 43.9133 220.143 43.3C220.53 42.9533 220.823 42.72 221.023 42.6C221.223 42.48 221.416 42.42 221.603 42.42C221.87 42.42 222.063 42.5533 222.183 42.82C222.316 43.0867 222.383 43.4133 222.383 43.8C222.383 44.9867 221.976 46.1 221.163 47.14C220.363 48.1667 219.243 48.9933 217.803 49.62C216.376 50.2467 214.71 50.56 212.803 50.56C210.763 50.56 208.93 50.16 207.303 49.36C205.676 48.5467 204.39 47.42 203.443 45.98C202.496 44.5267 202.023 42.8333 202.023 40.9C202.023 38.7267 202.456 36.8333 203.323 35.22C204.19 33.6067 205.45 32.3533 207.103 31.46C208.77 30.5667 210.776 30.12 213.123 30.12C215.19 30.12 216.916 30.4533 218.303 31.12C219.69 31.7867 220.73 32.7 221.423 33.86C222.116 35.02 222.463 36.3467 222.463 37.84ZM244.486 36.3C244.486 37.3133 244.099 38.1733 243.326 38.88C242.566 39.5867 241.546 39.94 240.266 39.94C239.026 39.94 238.092 39.6133 237.466 38.96C236.852 38.2933 236.546 37.4467 236.546 36.42V35.78C236.546 34.9133 236.366 34.2333 236.006 33.74C235.646 33.2333 235.172 32.98 234.586 32.98C234.119 32.98 233.679 33.1533 233.266 33.5C232.866 33.8467 232.539 34.38 232.286 35.1C232.032 35.8067 231.906 36.7067 231.906 37.8C231.906 39.3467 232.166 40.64 232.686 41.68C233.219 42.72 233.946 43.5067 234.866 44.04C235.786 44.56 236.832 44.82 238.006 44.82C238.859 44.82 239.626 44.72 240.306 44.52C240.999 44.3067 241.686 43.9 242.366 43.3C242.752 42.9533 243.046 42.72 243.246 42.6C243.446 42.48 243.639 42.42 243.826 42.42C244.092 42.42 244.286 42.5533 244.406 42.82C244.539 43.0867 244.606 43.4133 244.606 43.8C244.606 44.9867 244.206 46.1 243.406 47.14C242.619 48.1667 241.519 48.9933 240.106 49.62C238.692 50.2467 237.052 50.56 235.186 50.56C233.146 50.56 231.312 50.16 229.686 49.36C228.072 48.5467 226.792 47.42 225.846 45.98C224.899 44.5267 224.426 42.8333 224.426 40.9C224.426 38.8333 224.879 36.9867 225.786 35.36C226.706 33.7333 227.999 32.4533 229.666 31.52C231.346 30.5867 233.326 30.12 235.606 30.12C237.432 30.12 239.006 30.4 240.326 30.96C241.659 31.5067 242.686 32.2467 243.406 33.18C244.126 34.1133 244.486 35.1533 244.486 36.3ZM247.65 33.32L247.01 33.06C246.717 32.94 246.497 32.7867 246.35 32.6C246.204 32.4133 246.13 32.1867 246.13 31.92C246.13 31.5333 246.257 31.24 246.51 31.04C246.777 30.8267 247.117 30.72 247.53 30.72H248.63C248.884 30.72 249.117 30.6533 249.33 30.52C249.557 30.3867 249.844 30.1467 250.19 29.8L253.45 26.5C253.89 26.06 254.297 25.7333 254.67 25.52C255.057 25.3067 255.424 25.2 255.77 25.2C256.157 25.2 256.457 25.3267 256.67 25.58C256.897 25.8333 257.01 26.2 257.01 26.68V42.72C257.01 43.6933 257.177 44.4333 257.51 44.94C257.844 45.4467 258.324 45.7 258.95 45.7C259.457 45.7 259.844 45.5733 260.11 45.32C260.39 45.0667 260.61 44.78 260.77 44.46C260.944 44.1267 261.124 43.8333 261.31 43.58C261.497 43.3267 261.75 43.2 262.07 43.2C262.337 43.2 262.55 43.2933 262.71 43.48C262.87 43.6667 262.95 43.9867 262.95 44.44C262.95 45.5733 262.624 46.6067 261.97 47.54C261.317 48.46 260.417 49.1933 259.27 49.74C258.124 50.2867 256.817 50.56 255.35 50.56C253.177 50.56 251.497 50.04 250.31 49C249.124 47.9467 248.53 46.36 248.53 44.24V34.62C248.53 34.2333 248.457 33.9533 248.31 33.78C248.177 33.6067 247.957 33.4533 247.65 33.32ZM254.09 33.56V30.72H261.39C261.804 30.72 262.13 30.8133 262.37 31C262.624 31.1733 262.75 31.4267 262.75 31.76C262.75 32.2667 262.504 32.6933 262.01 33.04C261.517 33.3867 260.704 33.56 259.57 33.56H254.09ZM274.906 31.92V45.8C274.906 46.3333 274.946 46.7133 275.026 46.94C275.106 47.1533 275.246 47.3067 275.446 47.4L275.886 47.6C276.192 47.7333 276.412 47.9 276.546 48.1C276.679 48.3 276.746 48.5333 276.746 48.8C276.746 49.1733 276.626 49.4667 276.386 49.68C276.146 49.8933 275.759 50 275.226 50H266.106C265.572 50 265.186 49.8933 264.946 49.68C264.706 49.4667 264.586 49.1733 264.586 48.8C264.586 48.5333 264.652 48.3 264.786 48.1C264.919 47.9 265.139 47.7333 265.446 47.6L265.886 47.4C266.086 47.3067 266.226 47.1533 266.306 46.94C266.386 46.7133 266.426 46.3333 266.426 45.8V36.4C266.426 35.9733 266.366 35.6733 266.246 35.5C266.139 35.3133 265.972 35.1867 265.746 35.12L265.306 34.98C265.026 34.8867 264.819 34.7533 264.686 34.58C264.566 34.4067 264.506 34.1867 264.506 33.92C264.506 33.6 264.592 33.3467 264.766 33.16C264.939 32.9733 265.266 32.7867 265.746 32.6L270.186 30.88C270.906 30.6 271.472 30.4067 271.886 30.3C272.299 30.18 272.666 30.12 272.986 30.12C273.626 30.12 274.106 30.2933 274.426 30.64C274.746 30.9733 274.906 31.4 274.906 31.92ZM270.226 28.36C268.732 28.36 267.552 28.0133 266.686 27.32C265.819 26.6267 265.386 25.68 265.386 24.48C265.386 23.2933 265.819 22.36 266.686 21.68C267.552 21 268.732 20.66 270.226 20.66C271.719 20.66 272.899 21 273.766 21.68C274.632 22.36 275.066 23.2933 275.066 24.48C275.066 25.68 274.632 26.6267 273.766 27.32C272.899 28.0133 271.719 28.36 270.226 28.36ZM290.108 30.12C292.375 30.12 294.355 30.5533 296.048 31.42C297.742 32.2733 299.055 33.4733 299.988 35.02C300.935 36.5667 301.408 38.3667 301.408 40.42C301.408 42.3133 300.915 44.0267 299.928 45.56C298.942 47.0933 297.575 48.3133 295.828 49.22C294.095 50.1133 292.082 50.56 289.788 50.56C287.522 50.56 285.542 50.1267 283.848 49.26C282.155 48.38 280.835 47.1667 279.888 45.62C278.955 44.0733 278.488 42.2867 278.488 40.26C278.488 38.3267 278.982 36.6 279.968 35.08C280.955 33.5467 282.315 32.34 284.048 31.46C285.795 30.5667 287.815 30.12 290.108 30.12ZM291.568 47.66C292.075 47.54 292.462 47.1867 292.728 46.6C292.995 46.0133 293.115 45.16 293.088 44.04C293.062 42.92 292.862 41.5 292.488 39.78C292.142 38.1267 291.748 36.78 291.308 35.74C290.882 34.7 290.415 33.9533 289.908 33.5C289.402 33.0467 288.875 32.8867 288.328 33.02C287.822 33.14 287.435 33.4933 287.168 34.08C286.902 34.6667 286.782 35.52 286.808 36.64C286.848 37.7467 287.048 39.1667 287.408 40.9C287.755 42.54 288.148 43.8867 288.588 44.94C289.028 45.98 289.495 46.7267 289.988 47.18C290.495 47.62 291.022 47.78 291.568 47.66ZM313.89 31.92V45.8C313.89 46.3333 313.93 46.7067 314.01 46.92C314.09 47.1333 314.23 47.2933 314.43 47.4L314.83 47.62C315.27 47.8733 315.49 48.24 315.49 48.72C315.49 49.5733 314.977 50 313.95 50H305.09C304.557 50 304.17 49.8933 303.93 49.68C303.69 49.4667 303.57 49.1733 303.57 48.8C303.57 48.5333 303.637 48.3 303.77 48.1C303.903 47.9 304.123 47.7333 304.43 47.6L304.87 47.4C305.07 47.3067 305.21 47.1533 305.29 46.94C305.37 46.7133 305.41 46.3333 305.41 45.8V36.4C305.41 35.9733 305.35 35.6733 305.23 35.5C305.123 35.3133 304.957 35.1867 304.73 35.12L304.29 34.98C304.01 34.8867 303.803 34.7533 303.67 34.58C303.55 34.4067 303.49 34.1867 303.49 33.92C303.49 33.6 303.577 33.3467 303.75 33.16C303.923 32.9733 304.25 32.7867 304.73 32.6L309.17 30.88C309.85 30.6133 310.397 30.42 310.81 30.3C311.237 30.18 311.65 30.12 312.05 30.12C312.65 30.12 313.103 30.2933 313.41 30.64C313.73 30.9733 313.89 31.4 313.89 31.92ZM313.17 36.8L311.97 35.52L312.57 34.96C314.45 33.16 316.083 31.9067 317.47 31.2C318.857 30.48 320.13 30.12 321.29 30.12C323.077 30.12 324.517 30.7133 325.61 31.9C326.703 33.0733 327.25 34.6133 327.25 36.52V45.8C327.25 46.3333 327.29 46.7133 327.37 46.94C327.45 47.1533 327.59 47.3067 327.79 47.4L328.23 47.6C328.537 47.7333 328.757 47.9 328.89 48.1C329.023 48.3 329.09 48.5333 329.09 48.8C329.09 49.1733 328.97 49.4667 328.73 49.68C328.49 49.8933 328.103 50 327.57 50H318.71C317.683 50 317.17 49.5733 317.17 48.72C317.17 48.24 317.39 47.8733 317.83 47.62L318.23 47.4C318.43 47.2933 318.57 47.1333 318.65 46.92C318.73 46.7067 318.77 46.3333 318.77 45.8V37.72C318.77 36.8667 318.57 36.2267 318.17 35.8C317.783 35.3733 317.237 35.16 316.53 35.16C316.09 35.16 315.63 35.2467 315.15 35.42C314.67 35.5933 314.243 35.8467 313.87 36.18L313.17 36.8Z" fill="#83888F"/>
<rect width="375" height="72" fill="url(#paint0_linear_0_654)"/>
</g>
<defs>
<linearGradient id="paint0_linear_0_654" x1="0" y1="0" x2="0" y2="72" gradientUnits="userSpaceOnUse">
<stop stop-color="#FEFCF7" stop-opacity="0.01"/>
<stop offset="1" stop-color="#FEFCF7"/>
</linearGradient>
<clipPath id="clip0_0_654">
<rect width="375" height="72" fill="white"/>
</clipPath>
</defs>
</svg>
